<?xml version="1.0" standalone="no"?>
<!DOCTYPE svg PUBLIC "-//W3C//DTD SVG 20010904//EN"
 "http://www.w3.org/TR/2001/REC-SVG-20010904/DTD/svg10.dtd">
<svg version="1.0" xmlns="http://www.w3.org/2000/svg"
 width="400.000000pt" height="400.000000pt" viewBox="0 0 400.000000 400.000000"
 preserveAspectRatio="xMidYMid meet">
<metadata>
Created by potrace 1.14, written by Peter Selinger 2001-2017
</metadata>
<g transform="translate(0.000000,400.000000) scale(0.100000,-0.100000)"
fill="#000000" stroke="none">
<path d="M1778 3985 c-3 -3 -80 -14 -138 -20 -166 -17 -412 -97 -592 -193 -58
-31 -199 -120 -208 -131 -3 -3 -23 -19 -44 -35 -71 -53 -211 -199 -274 -286
-34 -47 -66 -90 -70 -95 -11 -13 -96 -159 -97 -165 -1 -3 -20 -44 -42 -92 -42
-89 -84 -209 -118 -338 -12 -44 -32 -148 -41 -207 -3 -26 -8 -56 -10 -66 -9
-54 -18 -231 -18 -372 0 -144 11 -341 19 -355 2 -3 6 -27 9 -55 38 -323 195
-706 385 -940 65 -80 256 -257 336 -311 50 -34 92 -61 95 -61 3 0 23 -11 45
-24 54 -34 170 -89 187 -89 8 0 18 -4 24 -9 24 -24 294 -94 414 -107 25 -3 72
-9 105 -13 78 -11 415 -11 480 -1 28 4 79 11 114 14 36 4 68 9 72 11 3 3 24 7
44 11 100 16 288 84 430 156 65 33 215 127 235 148 3 3 32 28 65 55 76 64 148
135 206 205 59 70 169 232 169 248 0 7 5 12 10 12 6 0 10 9 10 19 0 11 4 21 8
23 5 2 27 43 51 92 67 142 148 399 167 526 3 25 8 54 10 65 2 11 6 40 9 65 3
25 8 59 11 75 9 50 13 496 4 550 -4 28 -11 79 -14 114 -4 36 -8 67 -10 70 -2
3 -7 26 -10 51 -9 66 -53 232 -82 309 -14 36 -27 71 -28 76 -7 27 -71 160
-106 220 -13 22 -28 49 -34 60 -37 69 -154 214 -246 305 -100 98 -117 113
-230 188 -238 160 -491 249 -830 290 -68 9 -464 14 -472 7z m312 -269 c61 -5
136 -20 220 -43 60 -16 213 -83 218 -95 2 -5 8 -8 13 -8 23 0 163 -111 232
-184 132 -139 231 -302 310 -511 25 -65 74 -239 83 -292 2 -13 8 -49 14 -81
24 -139 34 -289 34 -497 0 -272 -10 -367 -69 -715 -11 -64 -77 -268 -116 -357
-110 -251 -281 -441 -487 -539 -100 -48 -107 -50 -170 -68 -120 -34 -217 -46
-382 -48 -188 -1 -365 36 -519 109 -218 103 -393 295 -512 559 -53 116 -128
341 -119 356 1 2 -3 15 -9 31 -6 15 -15 56 -21 90 -5 34 -12 71 -14 82 -5 27
-15 109 -21 175 -3 30 -8 80 -11 110 -7 68 -7 429 0 490 3 25 8 70 11 100 15
137 23 181 57 324 50 209 114 360 225 528 102 154 244 286 394 367 72 39 202
86 263 96 17 3 56 10 86 15 90 16 152 18 290 6z"/>
<path d="M1194 2508 l2 -123 779 0 c429 0 797 2 817 4 l38 3 0 119 0 119 -819
0 -819 0 2 -122z"/>
<path d="M1240 2050 l-45 -5 0 -115 0 -115 818 -3 817 -2 1 52 c0 29 1 85 1
123 l0 70 -773 0 c-426 0 -794 -2 -819 -5z"/>
<path d="M1199 1476 c-1 -1 -2 -56 -3 -124 l-2 -122 818 0 818 1 1 37 c1 68 1
157 0 185 l-1 28 -815 -2 c-448 -1 -816 -3 -816 -3z"/>
</g>
</svg>
